<?xml version="1.0" encoding="UTF-8"?>
<svg id="svg1" xmlns="http://www.w3.org/2000/svg" xmlns:xlink="http://www.w3.org/1999/xlink" xmlns:svg="http://www.w3.org/2000/svg" xmlns:sodipodi="http://sodipodi.sourceforge.net/DTD/sodipodi-0.dtd" xmlns:inkscape="http://www.inkscape.org/namespaces/inkscape" version="1.1" viewBox="0 0 816 482.7">
  <defs>
    <style>
      .cls-1 {
        fill: #000;
        stroke-width: 0px;
      }

      .cls-2 {
        isolation: isolate;
      }
    </style>
  </defs>
  <sodipodi:namedview id="namedview1" bordercolor="#000000" borderopacity="0.25" inkscape:current-layer="g1" inkscape:cx="167.79616" inkscape:cy="128.59145" inkscape:deskcolor="#d1d1d1" inkscape:pagecheckerboard="0" inkscape:pageopacity="0.0" inkscape:showpageshadow="2" inkscape:window-height="449" inkscape:window-maximized="0" inkscape:window-width="1400" inkscape:window-x="0" inkscape:window-y="25" inkscape:zoom="0.31883924" pagecolor="#ffffff"/>
  <g id="g1" inkscape:groupmode="layer" inkscape:label="Image">
    <image id="image1" class="cls-2" width="1224" height="724" transform="translate(-11.8 11.3) scale(.7)" xlink:href="tegaki3-1.png"/>
    <path id="path1" class="cls-1" d="M350.8,402.7c0-1.7-.3-2-1.7-2s-1.7-.3-1.7-2.2c0-1.2-.2-3.7-.4-5.7l-.4-3.5h-3.1v-4.5c0-7-.6-9.4-2.2-9.6l-1.4-.2.2-3.3c.1-1.8.3-3.4.4-3.5,0,0,1.6-.2,3.4-.3l3.3-.2.2,1.8c.2,1.4.6,1.8,1.8,1.8h1.6v10.7h1.6c1.4,0,1.6.4,2,3.1.2,1.7.4,4.3.4,5.7,0,2.1.2,2.6,1.2,2.6s1.4.9,2,5c.4,2.7.6,5.3.4,5.7-.2.4-2.1.7-4,.7h-3.6v-2ZM355.3,394.5c-.2-.5-.4-.4-.4.4,0,.7.1,1.1.4.9.2-.2.2-.8,0-1.3h0ZM479.4,375.8l-.2-1.5-10.8-.2-10.8-.2v-3.3h-3.2c-4,0-8.2-.8-8.2-1.5.1-2.4,0-2.5-3.6-2.5h-3.7v-1.6c0-1.3-.4-1.7-1.8-1.8-1.3-.2-1.9-.6-2-1.7s-.7-1.5-1.8-1.5-1.7-.3-2-.6c-.2-.3-1-.5-1.7-.3-1,.3-1.3,0-1.5-1.6-.2-1.5-.6-1.9-1.9-1.9-1.2,0-1.7-.5-2-1.7-.2-1.1-.9-1.7-1.9-1.9-1.1-.2-1.5-.7-1.5-1.8s-.3-1.6-2-1.6-2-.3-2.2-1.8c-.2-1.3-.6-1.9-1.7-2-1.1-.2-1.5-.7-1.5-1.8s-2-2.8-3.3-2c-.3.2-.8-1.3-1.1-3.3l-.5-3.7h-1.6c-1.4,0-1.6-.3-1.6-2s-.3-2-1.6-2h-1.6l-.4-3.6-.4-3.6-1.6.3-1.6.3v-11.6l3.5.2,3.5.2.2,3.1.2,3.1,1.8.2c1.5.2,1.8.6,2,2.4.2,1.6.5,2.2,1.5,2.2s1.4.7,1.7,3.3l.4,3.3,1.8.2c1.4.2,1.8.6,2,2,.2,1.4.6,1.8,1.8,1.8s1.6.4,1.8,1.8c.2,1.3.6,1.9,1.7,2,1.1.2,1.5.7,1.5,1.8s.3,1.6.7,1.6.7.8.7,1.7c0,1.4.3,1.7,1.3,1.4.7-.2,1.5,0,1.7.3.2.3.9.6,1.6.6s1.3.6,1.5,1.5c.2,1.1.7,1.6,2,1.7,1.4.2,1.8.6,1.8,1.8s.3,1.6,2,1.6,2,.3,2,1.6v1.6l3.7.5c3.2.4,3.7.6,3.7,2s.4,1.6,3.7,2c4,.5,5.1,2.1,1.8,2.6-1,.2.1.3,2.6.4,7.4.2,10.6.8,10.6,2.1s1.2,1.2,9.7,1.6c5.3.3,12.9.3,16.7,0l7-.5-.3-1.2c-.3-1,.3-1.3,3.2-1.6l3.5-.4.4-3.3c.3-2.4.7-3.2,1.6-3.2.7,0,.8.2.3.4-1.1.5-1.1,2.2,0,2.2s1.9-5.2,1.4-17.8l-.5-11.6h-3.1l-.2-5.5-.2-5.5-1.4-.2c-1.7-.2-2.2-2.7-2.2-10v-4.9s2.8.1,2.8.1c4.1.2,4.3.4,4.8,3.9.4,2.6.7,3.3,1.9,3.5l1.4.2.2,5.5.2,5.5h3.1l.4,7.5c.2,4.1.3,13.2.2,20.2l-.2,12.7-1.5.2c-1.1.2-1.5.7-1.5,1.8s-.4,1.6-1.8,1.8c-1.4.2-1.9.6-2,2-.2,1.4-.6,1.8-2,2-1.2.1-1.9.6-2,1.6-.2,1.2-.8,1.5-5,1.8-2.6.2-5.8.6-7,.8-2.3.5-2.9,2-1,2.5.6.2-1.9.3-5.6.4h-6.8c0,0-.2-1.4-.2-1.4ZM595.7,332.3c-1.9-2-3.5-4.1-3.5-4.6s-.3-1-.7-1-.7-.6-.7-1.3-.3-1.3-.7-1.3-.7-.6-.7-1.3.3-1.5.7-1.7.7-1.3.7-2.4.3-2,.7-2,.7-.8.7-1.7.3-1.7.7-1.7.7-.5.7-1.2.6-1.6,1.3-2.1c.7-.5,1.3-1.2,1.3-1.5s1.6-2.2,3.6-4.2c5.4-5.4,12.7-7.7,18.1-5.6,2.3.9,5.4,4.3,6.7,7.2,1.6,3.8,1.3,14.7-.5,20.1-.8,2.4-1.7,4.5-2,4.6s-.5.8-.5,1.5-.3,1.3-.6,1.3-.8.6-1,1.3l-.4,1.3-1-1c-1.1-1.1-1.1-1.3,1.5-8,2.3-6,3-16,1.4-19.8-1.7-4-3.4-5.2-7.6-5.2-6.5,0-8.2,1.7-8.2,8s-.3,4.7-.7,4.7-.7,2.2-.7,5.4-.2,5.2-.7,5c-.4-.3-.7,1-.7,3.3s-.3,3.6-.7,3.3c-.4-.2-.7.2-.7,1,0,1.2-1.4,3.4-2.1,3.3-.1,0-1.8-1.7-3.7-3.7h0ZM598.8,329.3c0-.7.3-1.3.7-1.3s.7-1.8.7-4,.3-4,.7-4,.7-2.1.7-5,.3-5.6.7-6.3.5-1.3.3-1.3c-.7,0-5,4.6-5,5.3s-.3.7-.7.7-.7.6-.7,1.3-.3,1.3-.7,1.3-.7.6-.7,1.3-.3,1.3-.7,1.3-.7,1.3-.7,2.8c0,2.1.5,3.4,1.6,4.7.9,1.1,1.8,2.5,2,3.2.5,1.7,1.6,1.6,1.6,0h0ZM332.3,320.2c-.5-.2-.8-1.2-.8-2.3,0-1.6-.3-1.9-1.7-1.9h-1.7v-2.9c0-4.7-.7-7.1-2-7.1s-2-1.3-2-5-.2-2.9-1.5-3.1c-1.2-.2-1.6-.8-2.1-3.7-.4-2.8-.8-3.5-1.8-3.5s-1.3-.6-1.4-1.8c-.2-1.4-.6-1.9-2-2s-1.8-.6-1.8-1.8-.3-1.6-1.7-1.6-1.7-.3-1.7-2.1.2-2,1.3-1.7c1.1.3,1.3-.2,1.8-3.4.3-2.1.6-3.1.8-2.3.1.8.7,1.5,1.2,1.5s1-.7,1.1-1.5c.2-1.1.7-1.6,2-1.7,1.4-.2,1.8-.6,1.8-1.8s.4-1.6,2.2-1.8c1.8-.2,2.2-.5,2.2-1.8,0-1.4.4-1.6,3-1.8,3.4-.3,3.7-.5,3.7-2.5,0-1.1.5-1.5,2-1.8,1.4-.2,2-.7,2-1.7s.6-1.4,3.5-1.9c2.7-.5,3.5-.9,3.5-1.8s.8-1.3,3.6-1.6c3-.4,3.7-.7,3.8-1.9l.2-1.4,5.5-.2,5.5-.2.2,1.9c.2,1.3.6,1.9,1.7,2.1l1.5.2.2,16.5c.3,25.4.2,29.3-.4,29.9-.3.3-3.5.7-7.2.8l-6.6.3v1.6c0,1.3-.3,1.6-2,1.6s-2-.2-1.8-1.5c.2-1.2-.2-1.5-1.6-1.7-1.5-.2-1.8-.5-1.8-2.2s.3-2,1.7-2,1.7-.3,1.7-1.7.3-1.7,2-1.7,2-.3,2-1.7.3-1.7,1.7-1.7h1.7v-14.6c0-8-.3-14.8-.6-15s-2-.2-3.7,0c-2.7.4-3.1.6-3.1,2s-.3,1.6-2,1.6-2,.3-2,1.6-.4,1.7-3.3,2.1c-2.9.4-3.3.7-3.3,2s-.4,1.6-2.2,1.8c-1.8.2-2.1.5-2,1.7.2,1.2-.2,1.5-1.7,1.7-1.5.2-1.9.6-2.1,2-.1,1.3-.6,1.8-1.5,1.8s-1.3.5-1.3,2,.2,2,1.3,1.6c1.1-.4,1.3,0,1.7,3.6l.5,4h1.6c1.4,0,1.6.3,1.6,2.2s.2,3.6.4,5.4c.4,2.7.6,3.1,1.8,2.9l1.4-.2.3,4c.3,3.4.5,4,1.7,4.2,1.1.2,1.5.8,1.8,3.3.2,1.7.4,4.1.4,5.3v2.2h-2.3c-1.3,0-2.7.1-3.2.3s-1.3.1-1.7,0h0ZM680.4,318.3c-.2-.9,0-2.9.4-4.3l.9-2.6-1.5-1.6c-1.6-1.7-1.6-4,0-4.1.5,0,1.4-.1,1.8-.2.6,0,.8-1.6.8-5.1s.3-5.1.7-5.4c.8-.5.9-11.7.1-11.7s-1,.6-1.5,1.3-1.3,1.3-1.7,1.3-1.1,2.4-1.6,6.2c-.9,7-2.3,12.9-3.3,14-.5.5-1,.4-1.7-.3-.9-.9-.9-1.5,0-4.6,1.4-5.4,1.8-9.5,1.2-10.5-.4-.7-.8-.4-1.5,1.2-.5,1.1-1.1,2.1-1.4,2.1s-.5,1.8-.5,4-.3,4.1-.7,4.4c-.4.2-.7,1.7-.7,3.4s-.3,3.5-.6,4.1-.8,1.7-1,2.3c-.2.6-.8,1.2-1.4,1.2-1.2,0-1.4-4.9-.4-8.7.4-1.3,1-5.2,1.4-8.7.4-3.5.9-7.4,1-8.7s0-2.8-.3-3.3c-.5-.8-1-.6-2.6,1.2-2.4,2.6-4.1,2.8-4.1.4s2.6-5,3.7-5,1.3-.9,2.3-2c1-1.1,2.1-2,2.5-2s1-.6,1.5-1.3,1.3-1.3,1.7-1.3,1.1-.6,1.7-1.3,1.3-1.3,1.8-1.3.9-.3.9-.7.5-.7,1-.7,1-.3,1-.7.6-.7,1.3-.7,1.3-.3,1.3-.7.6-.7,1.3-.7,1.3-.3,1.3-.7.6-.7,1.3-.7,1.3-.3,1.3-.7.9-.7,2-.7,2-.3,2-.7c0-.7,2.6-.9,4.3-.3,1.3.5,1.4,2.7.2,3.8-1.5,1.4-4.8,2.3-6,1.5-.8-.5-1.9-.3-4.3.9-1.8.9-3.3,1.9-3.4,2.1-.1.3-.6.5-1.2.5s-.9.3-.9.7-.5.7-1,.7-1,.3-1,.7-.4.7-.9.7-1.3.6-1.8,1.3-1.2,1.3-1.5,1.3c-1.7,0-2.4,2-2,5.6.4,3.9,1.1,4.8,1.9,2.4.6-1.8,3-4,4.5-4s1.2-.3,1.2-.7.5-.7,1-.7,1-.3,1-.7.4-.7.9-.7,1.3-.6,1.8-1.3,1.5-1.3,2.1-1.3,1.2-.3,1.2-.7,1.8-.7,4-.7h4v1.3c0,.7.3,1.3.7,1.3s.7.9.7,2,.3,2,.7,2,.7.9.7,2,.3,2,.7,2,.7,1.5.7,3.3.3,3.3.7,3.3.7,1.5.7,3.3.3,3.3.7,3.3.7,1.9.7,4.3.3,4.3.7,4.3.7,1.7.7,3.7v3.7l-2.1,1.9c-1.6,1.5-2.7,1.9-5,1.9s-7.6-1.7-7.6-2.8-.4-.5-.9-.5-1.5-.6-2.3-1.3l-1.4-1.3-.4,1.8c-1,4.7-3.2,6.4-4,3.1h0ZM700.2,308.7c0-3.1-.3-5.4-.7-5.4s-.7-1.5-.7-3.3-.3-3.3-.7-3.3-.7-1.5-.7-3.3-.3-3.3-.7-3.3-.7-1.2-.7-2.7-.3-2.7-.7-2.7-.7-.9-.7-2-.3-2-.7-2-.7-.5-.7-1.2-.5-1.2-1-1.2-1,.2-1,.6-.6.6-1.3.6-1.3.3-1.3.7-.4.7-.8.7c-.6,0-.9,2.1-.9,8.2,0,4.5-.5,10.8-.9,14l-.9,5.9,1.6,1.5c3.3,3,6.3,4.7,8.9,5.1,3.8.5,4.4-.3,4.4-6.6h0ZM648.8,313.1c0-.5-.4-1.1-.8-1.3-.7-.3-.7-.5,0-.8.5-.2.8-1.1.8-2s.3-1.6.7-1.6.7-2.7.7-6.7-.3-6.7-.7-6.7-.7.3-.7.6c0,.5-2.8,2.1-3.7,2.1s-.3-1.2-.3-2.6c0-2.2.3-2.7,2-3.4s2-1.2,2-3.4-.3-2.6-.7-2.6-.7-.6-.7-1.3.4-1.3,2-1.3h2v4h2c1.7,0,2,.2,2,1.9s-.6,2.2-1.3,2.8c-1.4,1-1.9,4-.7,4s.7.6.7,1.4c0,1.1.3,1.3,1.3,1,1.2-.4,1.3-.1,1.3,2s-.3,2.4-.7,2.4-.7.6-.7,1.3-.3,1.3-.7,1.3-.7,1.5-.7,3.3-.3,3.3-.7,3.3-.7.3-.7.8c0,.9-2,2.5-3.2,2.6-.5,0-.8-.4-.8-.9h0ZM243.5,304v-5.3l1.8-.2c1.4-.2,1.9-.6,2-2s.6-1.8,1.8-1.8,1.6-.3,1.6-1.7.3-1.7,1.7-1.7,1.7-.3,1.7-2v-2h4v-2c0-1.7.3-2,1.7-2s1.7-.3,1.7-1.7.3-1.7,2-1.7h2v-2c0-1.7.3-2,1.7-2s1.7-.3,1.7-1.6.4-1.7,1.8-1.8c1.4-.2,1.9-.6,2-2,.2-1.4.6-1.8,1.8-1.8s1.6-.4,1.8-1.8c.2-1.4.6-1.8,1.9-1.8,1.3,0,1.7-.3,1.7-1.7,0-1.3.4-1.7,1.8-1.9,1.4-.2,1.8-.6,2-2,.2-1.4.6-1.8,2-2,1.4-.2,1.8-.5,1.7-1.7-.1-1.1.2-1.5,1.7-1.7,1.4-.2,1.8-.6,1.8-1.8s.4-1.6,1.8-1.8c1.4-.2,1.9-.6,2.2-2.2.2-1.1.6-1.9.9-1.8.3.1,1.1,0,1.8-.1.9-.2,1.2-.7.9-1.7l-.4-1.4,3.7-.5,3.7-.5v-1.5c0-1.2.4-1.6,1.8-1.8,1.4-.2,1.9-.6,2-2s.6-1.8,1.8-1.8,1.6-.3,1.6-1.7.3-1.7,2-1.7,2-.3,2.1-1.8c0-1.6.1-1.6.4-.3.4,2.1,2.2,1.9,2.2-.2s.3-1.7,2-1.7h2v-11.3h-1.3c-1,0-1.4-.7-1.8-3.5-.5-2.9-.8-3.5-2-3.7-1.1-.2-1.5-.8-1.9-3.2-.2-1.6-.3-3.3,0-3.6.5-.7,5.1-.9,8.2-.3l2,.4.4,3.3c.4,2.9.6,3.3,2.1,3.3h1.6v7.3h11.3v-1.6c0-1.7,1.4-2.4,5.1-2.4,1.6,0,2.1-.2,1.8-1-.2-.6-1-1-1.8-1.1-2.6-.1,2.3-1.1,6.1-1.2h3.5v-1.7c0-1.3.4-1.7,2.5-2,1.4-.2,4.3-.4,6.5-.4s5.1.2,6.5.4l2.5.4v6.4l-1.8.2c-1.3.2-1.9.6-2,1.7-.1.9-.7,1.5-1.3,1.4-.7,0-.8-.2-.3-.4,1.2-.5,1-2.2-.2-2.2s-1,.6-1,1.6-.4,1.7-2.2,1.8c-1.6.2-2.2.6-2.4,1.7-.2,1.2-.8,1.5-3.5,1.9-2.9.4-3.3.6-3.3,2.1s-.4,1.6-1.7,1.6-1.7-.3-1.7-1.7v-1.7h-7.3v1.7c0,1.4-.3,1.7-2,1.7s-2,.3-2.1,1.8c0,1.6-.1,1.6-.4.3-.2-.8-.7-1.5-1.2-1.5s-1,.7-1.1,1.5c-.2,1.1-.7,1.5-2.4,1.7l-2.2.2v4.8c0,7.1.6,9.8,2.1,9.8s1.2.5,1.2,3.3-.2,3.3-1.5,3.5c-1.1.2-1.6.7-1.7,2-.2,1.5-.5,1.8-2.1,1.8s-1.8-.3-1.8-1.5c0-1.2-.3-1.5-1.6-1.5h-1.7s-.2-5.5-.2-5.5c-.2-6.4-.3-6.5-6.5-5.8-3.4.4-4.3.7-4.3,1.6,0,.7.2.8.4.3.5-1.2,2.2-1,2.2.2s-.6,1-1.3,1-1.5.3-1.7.7c-.2.4-1,.7-1.7.7s-1.3.6-1.5,1.5c-.2,1.1-.7,1.6-2,1.7-1.4.2-1.8.6-1.8,1.8s-.4,1.6-1.8,1.8c-1.3.2-1.9.7-2.2,1.9-.3,1.2-.8,1.7-1.9,1.6-1.1,0-1.6.4-1.9,1.8-.3,1.4-.8,1.9-2.1,2.1-1.4.2-1.7.5-1.5,1.7.2,1.2-.1,1.5-1.5,1.5s-1.8.4-2.1,2c-.3,1.5-.8,2-2,2s-1.6.3-1.6,2-.3,1.9-.7,1.6c-1.1-.7-3.3.9-3.3,2.3s-.5,1.3-1.5,1.5c-1.1.2-1.6.7-1.7,2-.2,1.4-.6,1.8-2,2-1.3.1-1.9.6-2,1.7-.1.9-.8,1.5-1.7,1.7-1,.1-1.5.7-1.7,2-.1,1-.6,1.8-1.2,1.8s-1-.7-1-1.8v-1.8c0,0-.4,1.7-.4,1.7-.2.9-.6,2-.9,2.3-.3.3-.6,1.2-.6,1.8s-.5,1.2-1,1.2c-1.2,0-1.3-1.8-.2-2.2.5-.2.5-.4-.2-.4-.8,0-1.2.9-1.7,3.3-.5,2.7-.8,3.2-1.6,2.7l-1-.7,1-.7c.9-.6.8-.7-.1-.7-.7,0-1.2.6-1.3,1.5-.2,1.1-.7,1.6-2,1.7l-1.8.2-.5,3.3-.5,3.3-3.2.4-3.2.4-.2,3.4c-.2,3-.4,3.4-1.7,3.6-1.1.2-1.5.7-1.5,1.8v1.6h-8v-5.3ZM260.5,295.9c.4-.3.2-.5-.5-.5-.6,0-1.2.5-1.2,1.1s.2.8.5.5.8-.8,1.2-1.1h0ZM717.4,302.5c0-.5,0-6.4,0-13.3.2-12.1-1-25.9-2.1-25.9s-.5.3-.5.7-.9.7-2,.7-2-.3-2-1c0-1.1,2.9-4.3,3.8-4.3s1.2-.5,1.9-1.2,2.8-1.9,4.6-2.7c1.8-.9,3.9-1.8,4.5-2.2,1.9-1,5.7-.7,6.1.5.8,2.2-2.1,9.6-5.3,13.3-1.4,1.6-1.9,1.8-2.8,1.3-2-1.2-1.6-3.1,1.2-6.2,3.1-3.3,3.7-5.8,1.2-4.8-1.2.5-5,2.4-7.4,3.9-.3.2-.1.8.3,1.4,1.3,1.5,2,9.7,2,22.2,0,13.1-.4,16.8-2.2,17.9-1,.6-1.3.6-1.4,0h0ZM255.5,300.3c0-.5.5-1,1-1s1,.5,1,1-.5,1-1,1-1-.5-1-1ZM502,300.9c.5-.2,1.2-.2,1.7,0,.5.2,0,.3-.8.3s-1.3-.2-.8-.3h0ZM478.6,300.2c-.2-.2-.4-1-.4-1.7,0-1.8-2-1.5-2.1.3,0,1.2-.2,1-.5-.5-.3-1.6-.8-2-2.3-2.2-1.5-.2-1.8-.5-1.6-1.5.3-1,0-1.4-1.6-1.7l-1.9-.4v-6.4l2.6-.4c4-.7,7.3.2,7.5,1.9.1,1,.8,1.5,2,1.6,1.4.2,1.8.6,2,2,.2,1.4.6,1.8,2,2l1.8.2v7.2h-3.6c-2,0-3.8-.2-4-.4h0ZM761.7,299.8c-.4-.5-.9-1.7-1.1-2.8-.2-1.1-.7-3.3-1.1-5-.4-1.6-.9-4-1.1-5.2s-.6-2.2-1-2.2-.6-1.2-.6-2.7-.3-2.7-.7-2.7-.7-.9-.7-2-.3-2-.7-2-.7-1-.7-2.3-.3-2.5-.7-2.7c-.4-.2-.7-1.3-.7-2.4s-.3-2-.7-2-.7-1.1-.7-2.3-.3-2.3-.7-2.3-.7-1.2-.7-2.7-.3-2.7-.7-2.7-.7-.8-.7-1.7-.3-1.7-.7-1.7-.7.3-.7.6-.5.8-1.2,1c-.6.2-2.2,1.3-3.5,2.4l-2.3,2,.2,4.1c.1,2.2.5,4.6.8,5.2s.6,3.1.6,5.5v4.4h-1.3c-1.1,0-1.3-.4-1.3-2.3s-.3-2.5-.7-2.7c-.4-.2-.7-2.2-.7-4.4s-.3-4-.7-4-.7-1-.7-2.3-.3-2.5-.7-2.7-.7-1.4-.7-2.6-.2-2.4-.5-2.7-.8-1.4-1.2-2.6c-.6-1.9-.5-2.6,1.3-6.1,1.1-2.2,2.3-4.1,2.5-4.2.3-.1.5-.8.5-1.5s.3-1.3.7-1.3.7-.6.7-1.3.3-1.3.7-1.3.7-.5.7-1c0-1.6,3.1-4.3,5-4.3s2.2,1.7-.2,3.9c-2.3,2.2-8.7,14.6-8.2,16.1,1.3,4,1.4,4.1,3,3.3.8-.4,1.9-1.1,2.3-1.5,2.2-1.9,3-2.5,7.5-4.7,5.2-2.6,8-2.7,8-.3s-.3,1.3-.7,1.3-.7.4-.7.9-.9,1.3-2,1.7l-2,.8v2.9c0,1.6.3,2.9.7,2.9s.7,1.2.7,2.7.3,2.7.7,2.7.7.9.7,2,.3,2,.7,2,.7,1.2.7,2.7.3,2.7.7,2.7.7.9.7,2,.3,2,.7,2,.7,1.2.7,2.7.3,2.7.7,2.7.7.9.7,2,.3,2,.7,2,.7,1.2.7,2.7.3,2.7.7,2.7.7,1.2.7,2.7.3,2.7.7,2.7.7.5.7,1-.3,1-.7,1-.7.5-.7,1c0,1.2-.7,1.3-1.7.1h0ZM262.8,293c0-.5.5-1,1-1s1,.5,1,1-.5,1-1,1-1-.5-1-1ZM497.2,278.1l-.4-3.3-3.6-.5-3.6-.5v-3.5c-.2-1.9-.3-2.6-.5-1.6-.4,2.5-2.2,2.4-2.2-.2s.3-2,1-2,1-.4,1-1c0-1.2-1.1-1.3-1.6-.2-.2.5-.4.4-.4-.3,0-.7.4-1.2,1.3-1.2,1.3,0,1.4-.3,1.6-2.7,0-.6.8-1.1,1.9-1.2,1.5-.2,1.8,0,1.8,1.2s.4,1.4,1.6,1.4,1.8.3,2,.7c.2.4,1,.7,1.7.7,1,0,1.4.7,1.7,3.3.4,2.9.6,3.3,1.9,3.3s1.6.5,1.9,2.9c.2,1.6.2,4,0,5.3l-.4,2.4h-6.4l-.4-3.3ZM499.3,266.3c-.2-.2-.8-.2-1.3,0-.5.2-.4.4.4.4.7,0,1.1-.1.9-.4h0ZM408.8,273c0-1.4-.3-1.7-2-1.7h-2l-.2-3.8-.2-3.8-1.5.2-1.5.2v-4.9c0-2.7-.3-6.1-.6-7.5-.4-2.2-.7-2.7-2-2.6h-1.5c0,0,0-7.2,0-7.2v-7.2h-1.6c-1.9,0-2.4-2.1-2.4-9.8v-4.8h-1.6c-1.4,0-1.6-.4-2-3.1-.2-1.7-.4-4.1-.4-5.3,0-1.9-.2-2.2-1.7-2.2h-1.7v-7.2l-1.8-.2-1.8-.2-.2-3.5-.2-3.5h-10.4l-.3-2.5c-.2-1.4-.2-4.7,0-7.3.3-4.2.5-4.8,1.8-5,1.2-.2,1.4-.7,1.6-3.7l.2-3.5h3.1l.5-3.6c.4-3,.7-3.7,1.9-3.8,1-.1,1.6-.8,1.8-2.2.2-1.4.7-2,1.7-2s1.4-.6,1.7-3.7c.3-3.1.5-3.7,1.8-3.9,1.2-.2,1.5-.8,1.9-3.8l.5-3.6h3.2v-6.6l1.8-.2c1.1-.1,1.8-.6,1.6-1.1-.4-1.8.6-3.4,2.2-3.4s1.5-.3,1.6-2.7c0-1.5.2-2.9.4-3.3s1.9-.8,3.7-1.1c2.7-.4,3.3-.7,3.3-1.7,0-2,3.2-1.7,3.5.2.2,1.1.7,1.6,2,1.7l1.8.2v7.2h-1.7c-1.3,0-1.7.3-1.7,1.6v1.6l-3.6.5-3.6.5-.2,1.8c-.1,1.2-.7,1.8-1.6,2-1.2.2-1.5.8-1.9,3.5-.4,2.9-.6,3.3-2.1,3.3h-1.6v7.3h-3.2l-.5,3.7-.5,3.7h-3.2v7.3h-3.2l-.5,4c-.4,3.3-.7,4-1.7,4s-1.3.5-1.3,1.7v1.7h6.7v-1.6c0-1.3.4-1.7,1.8-1.8,1.4-.2,1.9-.6,2-2l.2-1.8,3.5-.2,3.5-.2.2-1.8c.2-1.5.5-1.8,2.2-1.8s2-.3,2-1.6v-1.6l3.1-.2c2.7-.2,3.2-.4,3.5-1.9.3-1.5.8-1.7,3.8-1.9l3.4-.2.2-1.8c.1-1.3.6-1.8,1.5-1.9,5.7-.3,5.7-.2,5.7-1.9v-1.6l4.8-.3c2.6-.2,5.9-.2,7.3,0l2.5.3v5.4c-.1,3-.3,4.7-.5,3.9s-.7-1.5-1.2-1.5c-.7,0-1,1.1-1,5s.2,5,1,5,1.1-.8,1.2-1.8c.2-1,.3.1.4,2.6,0,2.4.3,5.8.5,7.5.4,2.7.6,3.1,2,3.1h1.6v10.6l1.8.2c1.9.2,1.9.3,2.1,5,0,1.8.3,2.2,1.7,2.2s1.7.3,1.8,2.5c0,1.4.1,3.1.2,3.8,0,.8.6,1.4,1.5,1.5,1.6.2,2.2,2.3,2.2,7.2v2.9l1.8.2,1.8.2.2,3.5c.2,3,.4,3.5,1.7,3.7,1,.1,1.6.8,1.8,2.2.3,1.6.7,2,1.8,1.8l1.4-.2.5,4,.5,4h3l.4,4.8c.2,2.7.1,5.1-.2,5.4-.8.8-6.6,1-7.1.3-.2-.3-1.1-.5-2-.5s-1.6-.4-1.6-1.2c0-.7.2-.8.4-.3.5,1.2,2.2,1,2.2-.2s-.9-1.1-4.7-1.1-5.3.2-5.3,1.4-.6,1.4-3.7,1.7l-3.7.5v1.6c0,1.2-.4,1.6-1.6,1.6s-1.8.3-2,.7c-.2.4-1.1.7-2,.7s-1.5.4-1.5,1.1c0,.8-.5,1.3-1.9,1.5-1.6.3-2,.8-2.2,2.1-.2,1.4-.6,1.8-2,2-1.2.1-1.9.6-2,1.6-.2,1.2-.8,1.5-3.5,1.9-2.9.4-3.3.6-3.3,2.1s-.3,1.6-2,1.6-2,.3-2,1.7v1.7h-10.7v-1.7ZM419.6,262.2c.2-1.4.6-1.9,2-2,1.4-.2,1.8-.6,1.8-1.8s.4-1.6,3.3-2c2.7-.4,3.3-.7,3.5-1.9.1-1,.8-1.5,2-1.7,1.4-.2,1.8-.6,1.8-1.8v-1.5l3.7-.5,3.7-.5v-1.6c0-1.4.3-1.6,2-1.6s2-.3,2-1.6v-1.6l3.7-.5,3.7-.5v-1.6c0-1.3.4-1.6,1.7-1.6s1.7-.3,1.7-2-.3-2-1.6-2h-1.6l-.5-3.7-.5-3.7h-3.2v-7.3h-3.2l-.5-3.7-.5-3.7h-1.6c-1.4,0-1.6-.3-1.7-2.7,0-1.5-.2-3-.2-3.3,0-.4-.2-1.6-.2-2.7,0-1.7-.4-2-1.8-2h-1.7v-7.3h-1.6c-1.3,0-1.7-.4-2-2.5-.2-1.4-.4-3.9-.4-5.7,0-2.6-.2-3.2-1.3-3.2s-2.1-2.3-2.1-6.6c0-1.3-.2-3.5-.4-4.9l-.4-2.5h-6.5v1.7c0,1.5-.3,1.7-2.3,1.7s-2.3.2-2.3,1.6v1.6l-3.3.4c-2.9.4-3.3.6-3.3,2s-.4,1.6-3.3,2c-2.7.4-3.3.7-3.5,1.9-.1,1-.8,1.5-2,1.7-1.4.2-1.8.6-1.8,1.8s-.4,1.6-1.8,1.8c-1.3.2-1.9.6-2,1.7-.2,1.1-.7,1.5-1.7,1.5s-1.6.4-1.9,2.8c-.2,1.5-.2,4.2,0,6,.3,2.8.6,3.2,2,3.2s1.6.4,1.6,1.7v1.7h7.2l.2-1.8c.2-1.4.6-1.9,2-2,1.4-.2,1.8-.6,1.8-1.8v-1.5l3.7-.5c3.2-.4,3.7-.6,3.4-1.7-.4-1.6.7-2,6.2-2h4.5l.4,2.5c.8,4.6.7,4.6-3.2,5.1-3,.4-3.7.7-3.8,1.9-.1,1-.8,1.6-2.2,1.8-1.5.3-2,.7-2,1.8,0,1.2-.5,1.5-3.2,1.8-2.5.3-3.2.7-3.2,1.7,0,1.5-1.7,3-2.9,2.5-.7-.3-1,.5-1.4,3.3l-.5,3.6h-3.4l.4,2.1c.2,1.1.4,2.8.4,3.7,0,1.2.4,1.6,1.7,1.6s1.7.3,1.7,1.7v1.7h7.3v-1.7c0-1.3.3-1.7,1.7-1.7s1.7-.3,1.7-2,.3-2,1.7-2,1.7-.3,1.7-1.6.4-1.7,2.2-1.8c1.7-.2,2.2-.6,2.4-1.7.1-.8.6-1.5,1-1.5.4,0,1.9-.2,3.2-.4l2.4-.4.2,1.9c.1,1.3.7,2,1.6,2.2,2.6.5,3.2,3.4.7,3.4s-1.7.4-1.8,1.8l-.2,1.8-3.5.2-3.5.2-.2,1.8c-.1,1.3-.6,1.9-1.7,2-.9.1-1.5.7-1.5,1.5s-.3,1.4-.7,1.7c-.4.2-.7,1.1-.7,2,0,2.3-2,2.1-2.1-.2,0-1-.4-.1-.7,2l-.7,3.8-1.8.2c-1.2.1-1.8.6-2,1.7-.1,1-.7,1.5-1.5,1.5s-1.3.5-1.3,2.4.2,2.4,1.3,2.1c1.1-.3,1.3.1,1.7,3.3.2,2,.5,5.2.8,7.3l.4,3.7h6.5l.2-1.8ZM428,253.5c.5-.2,1.1-.2,1.3,0,.2.2-.2.4-.9.4-.8,0-.9-.2-.4-.4h0ZM439.4,246.2c.5-.2,1.1-.2,1.3,0,.2.2-.2.4-.9.4-.8,0-.9-.2-.4-.4h0ZM412.6,206.5c-.2-.5-.4-.4-.4.4,0,.7.1,1.1.4.9s.2-.8,0-1.3ZM664.3,271.7c-.5-.5-.8-1.8-.8-2.9s-.3-2.2-.7-2.4c-.4-.2-.7-1-.7-1.8,0-1.5-1.1-5.4-2.1-7.3-.3-.6-.6-1.6-.6-2.2s-.4-1.6-.8-2.3c-1.1-1.8,0-3.6,2.3-3.7.9,0,2.2-.5,2.7-1,3.6-3.3,6.7-4.8,9.3-4.5l2.1.2.5,3.7c.3,2,.8,4.9,1.2,6.3.4,1.5,1,3.7,1.3,5,.3,1.3.9,3.5,1.3,4.9,1.3,4.2-.5,6.8-2.6,3.9-1.1-1.5-2.2-1-5.6,2.1-1.1,1-2.4,1.8-2.9,1.8s-.9.3-.9.7c0,1-2.2.8-3.2-.3h0ZM669.5,266.1c.7-.7,2.1-1.6,3.1-2.2,2.5-1.3,2.7-1.7,2-4.5-.3-1.3-1.1-4.5-1.7-7.1-1.4-5.8-1.9-5.9-7.3-1.1-1.5,1.4-2.2,2.5-2.2,3.9s.2,1.9,1.3,1.7c.7-.2,1.3-.6,1.3-.8,0-.6,3.1-2,4.4-2s1,.7,1,1.7-.3,1.7-.6,1.7c-1.1,0-3.4,2.5-3.4,3.6s-.3,1.1-.7,1.1-.7,1.2-.7,2.7c0,3,1.2,3.5,3.4,1.4h0ZM708.2,251.2c0-2.4.8-3.1,6.1-5.9,4.4-2.3,7.5-2.6,8.5-.7.8,1.5.3,2.1-1.8,2.1s-6.5,2.3-8,3.7c-.5.5-1.2.9-1.5.9s-.6.4-.6,1-.6,1-1.3,1c-1.1,0-1.3-.4-1.3-2.1h0ZM290.8,221v-7h1.7c1.7,0,1.9-.8,1.9-6.2,0-.8.5-1.2,1.5-1.2s1.5-.5,1.9-3.6c.4-3.1.7-3.7,1.9-3.8,1.3-.2,1.5-.7,1.7-3.7.2-3,.4-3.5,1.7-3.7,1.2-.2,1.6-.8,2.1-4l.6-3.8h3.1v-7.3h3.2l.7-3.8c.4-2.1.7-3,.7-2,0,1.1.5,1.8,1,1.8.9,0,1.8-4,1.8-8.4s.2-2.2,1.6-2.2h1.6l.5-3.6c.4-3.1.7-3.7,1.9-3.8,1-.1,1.5-.7,1.7-2.1l.2-1.9,2.4.4c1.3.2,2.8.4,3.2.4,1,0,1.7,4.4,1.1,7.5-.3,1.8-.7,2.5-1.6,2.5s-2.1,1.7-1.9,3.1c0,.3,0,1.5,0,2.7,0,1.8-.3,2.2-1.7,2.2h-1.6l-.5,3.7c-.4,3-.7,3.7-1.7,3.7s-1.3.7-1.7,3.7l-.5,3.7h-1.6c-1.3,0-1.6.3-1.7,2.2-.1,4.5-.3,4.8-1.7,5-1.2.2-1.5.8-1.9,3.8-.4,3-.7,3.6-1.9,3.8-1.3.2-1.5.7-1.7,3.7l-.2,3.5h-1.6c-1.7,0-1.9.8-1.9,6.2,0,.8-.5,1.2-1.5,1.2s-1.6.4-2,3.7l-.5,3.7h-1.6c-1.3,0-1.6.3-1.6,2v2h-2c-1.7,0-2,.3-2,1.7s-.3,1.7-1.7,1.7h-1.7v-7ZM83.1,216.8c-.6-.6-.3-2,.5-2.9.5-.5,1.4-2.1,2.2-3.5.7-1.5,1.5-2.8,1.7-3s.9-1.1,1.5-2.1c1-1.6,1-2.2.4-5-.4-1.8-1.2-3.6-1.6-4.2-.4-.6-1-2.1-1.3-3.3s-1-3.2-1.6-4.3c-.6-1.1-1.1-2.1-1.2-2.2,0-.1-.5.1-1,.5-3.3,2.8-4.3,3.4-5.2,3.2-.6-.1-1.1-.8-1.2-1.6-.2-1.4,0-1.8,3.4-4.3,1.2-.9,1.8-2,1.8-3.2,0-2-1.7-7.9-2.6-9-.3-.4-1-2.2-1.4-4-.7-2.7-.7-3.3,0-3.8.5-.3,1.1-.6,1.3-.6.5,0,3.1,5.8,4,9,.4,1.5,1.1,3,1.4,3.3.3.3.6,1.2.6,1.8s.3,1.2.7,1.2c.4,0,.7-.3.7-.7,0-1.2,1.6-2.4,3.9-2.9,1.8-.4,2.2-.3,2.7,1.1.6,1.6-.1,2.6-3.9,5.2-1.7,1.2-2.3,2.6-1.5,3.6.3.4.8,1.8,1.1,3.1.3,1.3.9,3,1.4,3.7.5.8,1.1,2.5,1.3,3.8s.8,2.4,1.2,2.4,2.5-1.6,4.5-3.6c4.5-4.4,12-8.8,15.8-9.4l2.9-.5,2,2.2,2,2.2-.3,4.8c-.3,5.1-2.9,11.5-5.9,14.7l-1.5,1.6-1-1-1-1,1.7-2.5c1.8-2.7,4.5-10.1,4.5-12.1s-.3-2.1-.7-3.2c-.6-1.7-1-2-2.5-1.7-2.8.5-12.1,6.4-13.9,8.8-.4.6-1.7,2.1-2.8,3.3-2.1,2.3-2.7,4-1.4,4s1,1.2,1.4,2.8c.4,1.5,1.2,3.5,1.7,4.3,1.1,1.8.7,4-1,4.9-1.1.6-13.2.7-13.8.1h0ZM93.2,209.6c-1.4-2.1-1.9-2.1-3.1.2-1.4,2.7-1.2,3.1,1.4,3.5,1.9.3,2.4,0,2.6-.9.1-.7-.3-1.9-.8-2.8ZM379.5,196.3c0-.6.5-1,1-1s1,.4,1,1-.5,1-1,1-1-.4-1-1ZM146.1,182.3c-.4-.9-.7-2.2-.7-2.9s-.4-1.7-.9-2.5c-.5-.7-1.1-2.4-1.4-3.6-1.2-6.1-2-6.3-6.5-2-3.8,3.7-6.2,4.7-6.8,3-.4-1.1.6-3.7,1.4-3.7.3,0,1.3-.8,2.4-1.7,1.1-.9,2.1-1.7,2.3-1.7s1.2-.7,2.2-1.6l1.8-1.6-.7-2.7c-.4-1.5-.9-2.7-1.2-2.7s-.7-1.1-.9-2.3c-.2-1.3-.7-2.3-1-2.3s-.8-.7-1.1-1.5c-.3-.8-.9-1.8-1.3-2.2-.5-.4-1-1.6-1.3-2.8-.4-1.8-.3-2.2.8-2.2,1.8,0,6.2,5.8,6.2,8.2s.3,1.1.7,1.1,1,1.3,1.4,3c.9,3.5,2.1,4.2,4.1,2.4.8-.7,1.6-1.3,1.9-1.3s1.1-.5,1.8-1.2c1.6-1.4,3.3-2.6,7.8-5.7,1.8-1.3,3.4-2.8,3.6-3.5.2-1-2.4-6.7-5.7-12.6-.5-.8-.8-2-.8-2.6,0-.6-.3-1.3-.7-1.5-.8-.5-6,1.7-6,2.4s-.7.7-1.5,1c-.8.3-2.9,1.9-4.7,3.5-3.9,3.7-4.7,4.2-6.1,3.7-1.8-.7-1.2-2,2.6-5.5,6.8-6.2,16.9-11.8,18.9-10.5.8.5,1.3,3.7.6,3.7s-.7,2.5.3,3.5c.5.5,1.1,1.6,1.4,2.5.3.9.7,1.8.9,2,.2.2,1.2,1.8,2.1,3.7,2.6,5.1,2.5,5.1,4.8,3.7,1.1-.7,2.3-1.1,2.6-.9,1.1.7.5,3-1.2,4.5l-1.8,1.5,3.4,7.7c1.9,4.2,3.8,9.1,4.2,10.8.6,2.3,1.1,3,2.1,3s2.6.3,4.3.7l3,.7v4l-2.5-.5c-1.4-.3-3.3-.6-4.2-.8l-1.7-.3-.8,3c-1.2,4.3-2.4,5.4-6,4.9-4.1-.6-7.5-2.3-7.5-3.8s1.2-1.6,5.9-.5c1.9.4,3.5.6,3.7.5.2-.2.5-1.3.7-2.4l.4-2.1-2.9.5c-2.5.5-14.5,2.5-17.2,2.9-1.9.3-2.7,1.2-2.7,3.2s-1.8,2.7-2.7.3h0ZM161.2,173.3c5.1-.9,9.4-1.6,9.5-1.7,1-.7-6.3-19-7.7-19s-7.5,4.8-7.5,5.4,1,2,2.5,3.4c4.3,4,5.7,6.5,4.3,7.9-.5.5-2-.6-5.1-3.7-2.4-2.4-4.4-4.7-4.4-5.1,0-.9-1.1-.9-2.1.2-.5.5-2,1.7-3.4,2.7-2.6,2-3.3,4.3-1.6,5.7.5.4,1.1,2,1.4,3.5l.4,2.7,2.1-.3c1.2-.2,6.3-1,11.5-1.9ZM110.6,171c-3.9-3.9-4.1-4.1-3.2-5.5,1-1.6,9.9,6.2,9.2,8.1-.6,1.7-2.5.9-6-2.6h0ZM206.2,155.3c-5.3-1.1-8.7-3.5-8.7-6.1s1.8-2.1,3.9,0c2,2.1,4.5,2.7,11.2,3,3.9.2,4.9.7,4.9,2.4v1.3h-4.5c-2.5-.1-5.6-.4-6.8-.7h0ZM149.3,148.9c-2.1-1.1-2.3-3.8-.4-4.1,1.5-.3,3.8,2.3,3.4,3.9-.4,1.5-.6,1.5-3.1.2ZM237,140.6c-.5-.7-.7-1.6-.6-1.8.2-.3,0-2.9-.5-6-.4-3-.5-5.5-.2-5.5s.4-.3.2-.7c-.6-.9-1.2-27.8-.7-30.5.3-1.6.8-2.2,1.7-2.2s1.3.4,1.4.8c0,.5.2,7.1.3,14.8.1,7.7.2,14.5.3,15.2,0,.8.6,1.2,2,1.2s3.9,1.3,7.8,4.6c1.3,1.1,6.9,2.7,9.3,2.7s5.1-2,7.5-7.2c1.2-2.7,1.8-4.9,1.8-7.5,0-3,.2-3.7,1.3-3.9,3.8-.7,3.1,7.7-1.4,16.3-2.6,5.1-7,6.9-13,5.5-3.1-.7-7.5-2.8-8.5-4-.6-.7-3.6-2.7-4.1-2.7s-1.9,7.9-1.5,9c.4.9-.8,3-1.7,3s-.8-.6-1.3-1.4h0ZM213.3,140.9c-.8-.8-.4-2.8.7-3.5,1.3-.7,1.4-.5-3.8-6.6-1.6-1.9-3.4-3.5-4-3.5-.6,0-2.1.9-3.3,2-1.2,1.1-2.6,2-2.9,2s-.5.2-.3.4c.2.2-1,1.5-2.8,2.8-1.8,1.3-3.7,2.9-4.4,3.6-1.3,1.3-1.7,1.4-3,.6-1-.6-.5-4.1.6-4.1s1-.4,1.5-.8c.5-.5,1.9-1.6,3.2-2.6,1.3-1,3.1-2.4,4-3.2.9-.8,2.3-1.9,3.2-2.5,2-1.4,1.9-1.9-1.2-4.9-2.7-2.7-3.4-5-1.7-5.7.6-.2,2.3.9,4.4,3,3.3,3.3,4.7,4.1,4.7,2.8s1.1-.8,2.4-1.1c1.7-.3,2.7-.2,3.4.6,1.4,1.4.6,3-1.6,3.3-2.7.3-2.3,1.7,2,7,4.7,5.9,5.2,8.2,1.9,9.9-2.2,1.2-2.3,1.2-2.9.6h0ZM318.5,119.1l-1.2-.9.8-2.6c.5-1.4,1.1-3,1.5-3.4s.5-.8.3-.8.4-2,1.4-4.5c3.1-8.2,2.1-20.9-2-25.5-3.1-3.5-4.6-4-9.1-3.2-2.2.4-4.1,1-4.1,1.3s-.9.7-2,.9c-1.1.2-2.3.9-2.7,1.4s-1.2,1-1.7,1-.9.2-1,.5-.2,6.3-.3,13.5c-.3,14.5-.4,16.4-1.1,17-.7.7-3.9-.2-3.9-1.1s-5-6.6-6.1-6.6-.7-1.1-1-2.3c-.5-2.5,1.5-12.3,2.5-12.3s.6-.4.6-.8c0-1.2,2.5-5.7,4-7.4.7-.8,1.3-1.6,1.3-1.9s.4-.5.9-.5,1-.3,1.2-.6c.1-.3,2.5-1.7,5.4-3,6.4-3,11.5-3.7,14.8-2.2,2.6,1.2,6.6,5.8,7.4,8.4.3.9.7,2,1,2.3s.8,2.2,1.2,4c1.1,5.4-.5,14.8-4.3,25.3-1.6,4.4-2.4,5.2-3.9,4.1h0ZM295.2,97c0-5.3,0-9.5-.4-9.3-1.1.7-3.3,6-4.3,10.3l-1,4.3,2.4,2.5c1.3,1.4,2.6,2.4,2.8,2.2s.4-4.7.5-10Z"/>
  </g>
</svg>